STARTFONT 2.1
FONT -pokey-roxy-semicondensed-r-normal--17-0-75-75-M-60-FontSpecific-0
SIZE 1 75 75
FONTBOUNDINGBOX 6 17 0 -4
STARTPROPERTIES 17
POINT_SIZE 0
PIXEL_SIZE 17
RESOLUTION_X 75
RESOLUTION_Y 75
FONT_ASCENT 13
FONT_DESCENT 4
AVERAGE_WIDTH 60
SPACING "M"
_XMBDFED_INFO "Edited with xmbdfed 4.7."
FOUNDRY "pokey"
FAMILY_NAME "roxy"
WEIGHT_NAME "semicondensed"
SLANT "r"
SETWIDTH_NAME "normal"
ADD_STYLE_NAME ""
CHARSET_REGISTRY "FontSpecific"
CHARSET_ENCODING "0"
ENDPROPERTIES
CHARS 95
STARTCHAR uni0020
ENCODING 32
SWIDTH 5760 0
DWIDTH 6 0
BBX 0 0 0 0
BITMAP
ENDCHAR
STARTCHAR uni0021
ENCODING 33
SWIDTH 5760 0
DWIDTH 6 0
BBX 1 12 2 0
BITMAP
80
80
80
80
80
80
80
80
80
00
80
80
ENDCHAR
STARTCHAR uni0022
ENCODING 34
SWIDTH 5760 0
DWIDTH 6 0
BBX 5 3 0 9
BITMAP
D8
48
90
ENDCHAR
STARTCHAR uni0023
ENCODING 35
SWIDTH 5760 0
DWIDTH 6 0
BBX 5 10 0 1
BITMAP
50
50
50
F8
50
50
F8
50
50
50
ENDCHAR
STARTCHAR uni0053
ENCODING 36
SWIDTH 5760 0
DWIDTH 6 0
BBX 5 12 0 -1
BITMAP
20
78
A0
A0
60
20
30
28
28
28
F0
20
ENDCHAR
STARTCHAR uni0025
ENCODING 37
SWIDTH 5760 0
DWIDTH 6 0
BBX 4 12 1 0
BITMAP
D0
D0
10
20
20
20
40
40
40
80
B0
B0
ENDCHAR
STARTCHAR uni0026
ENCODING 38
SWIDTH 5760 0
DWIDTH 6 0
BBX 5 10 0 0
BITMAP
60
90
90
60
40
A0
A8
90
90
68
ENDCHAR
STARTCHAR uni0027
ENCODING 39
SWIDTH 5760 0
DWIDTH 6 0
BBX 2 4 2 8
BITMAP
C0
C0
40
80
ENDCHAR
STARTCHAR uni0028
ENCODING 40
SWIDTH 5760 0
DWIDTH 6 0
BBX 3 16 1 -3
BITMAP
20
40
80
80
80
80
80
80
80
80
80
80
80
80
40
20
ENDCHAR
STARTCHAR uni0028
ENCODING 41
SWIDTH 5760 0
DWIDTH 6 0
BBX 3 16 1 -3
BITMAP
80
40
20
20
20
20
20
20
20
20
20
20
20
20
40
80
ENDCHAR
STARTCHAR uni002A
ENCODING 42
SWIDTH 5760 0
DWIDTH 6 0
BBX 5 7 0 0
BITMAP
20
A8
70
20
70
A8
20
ENDCHAR
STARTCHAR uni002B
ENCODING 43
SWIDTH 5760 0
DWIDTH 6 0
BBX 5 5 0 1
BITMAP
20
20
F8
20
20
ENDCHAR
STARTCHAR uni002C
ENCODING 44
SWIDTH 5760 0
DWIDTH 6 0
BBX 2 4 2 -2
BITMAP
C0
C0
40
80
ENDCHAR
STARTCHAR uni002D
ENCODING 45
SWIDTH 5760 0
DWIDTH 6 0
BBX 4 1 1 3
BITMAP
F0
ENDCHAR
STARTCHAR uni002E
ENCODING 46
SWIDTH 5760 0
DWIDTH 6 0
BBX 2 2 2 0
BITMAP
C0
C0
ENDCHAR
STARTCHAR uni002F
ENCODING 47
SWIDTH 5760 0
DWIDTH 6 0
BBX 5 12 0 0
BITMAP
08
08
08
10
10
10
20
20
20
40
40
40
ENDCHAR
STARTCHAR uni0030
ENCODING 48
SWIDTH 5760 0
DWIDTH 6 0
BBX 4 12 1 0
BITMAP
60
90
90
90
90
90
90
90
90
90
90
60
ENDCHAR
STARTCHAR uni0031
ENCODING 49
SWIDTH 5760 0
DWIDTH 6 0
BBX 3 12 1 0
BITMAP
40
C0
40
40
40
40
40
40
40
40
40
E0
ENDCHAR
STARTCHAR uni0032
ENCODING 50
SWIDTH 5760 0
DWIDTH 6 0
BBX 4 12 1 0
BITMAP
E0
10
10
10
10
10
20
40
40
80
80
F0
ENDCHAR
STARTCHAR uni0033
ENCODING 51
SWIDTH 5760 0
DWIDTH 6 0
BBX 4 12 1 0
BITMAP
E0
10
10
10
20
40
20
10
10
10
10
E0
ENDCHAR
STARTCHAR uni0034
ENCODING 52
SWIDTH 5760 0
DWIDTH 6 0
BBX 4 12 1 0
BITMAP
10
30
50
50
50
90
90
90
F0
10
10
10
ENDCHAR
STARTCHAR uni0035
ENCODING 53
SWIDTH 5760 0
DWIDTH 6 0
BBX 4 12 1 0
BITMAP
F0
80
80
80
80
C0
20
10
10
10
20
C0
ENDCHAR
STARTCHAR uni0036
ENCODING 54
SWIDTH 5760 0
DWIDTH 6 0
BBX 4 12 1 0
BITMAP
60
80
80
80
80
80
E0
90
90
90
90
60
ENDCHAR
STARTCHAR uni0037
ENCODING 55
SWIDTH 5760 0
DWIDTH 6 0
BBX 4 12 1 0
BITMAP
F0
10
10
10
20
20
20
40
40
40
80
80
ENDCHAR
STARTCHAR uni0038
ENCODING 56
SWIDTH 5760 0
DWIDTH 6 0
BBX 4 12 1 0
BITMAP
60
90
90
90
90
60
90
90
90
90
90
60
ENDCHAR
STARTCHAR uni0039
ENCODING 57
SWIDTH 5760 0
DWIDTH 6 0
BBX 4 12 1 0
BITMAP
60
90
90
90
90
90
70
10
10
10
20
C0
ENDCHAR
STARTCHAR uni003A
ENCODING 58
SWIDTH 5760 0
DWIDTH 6 0
BBX 2 6 2 0
BITMAP
C0
C0
00
00
C0
C0
ENDCHAR
STARTCHAR uni003B
ENCODING 59
SWIDTH 5760 0
DWIDTH 6 0
BBX 2 8 2 -2
BITMAP
C0
C0
00
00
C0
C0
40
80
ENDCHAR
STARTCHAR uni003C
ENCODING 60
SWIDTH 5760 0
DWIDTH 6 0
BBX 4 7 1 0
BITMAP
10
20
40
80
40
20
10
ENDCHAR
STARTCHAR uni003D
ENCODING 61
SWIDTH 5760 0
DWIDTH 6 0
BBX 4 3 1 2
BITMAP
F0
00
F0
ENDCHAR
STARTCHAR uni003E
ENCODING 62
SWIDTH 5760 0
DWIDTH 6 0
BBX 4 7 1 0
BITMAP
80
40
20
10
20
40
80
ENDCHAR
STARTCHAR uni003F
ENCODING 63
SWIDTH 5760 0
DWIDTH 6 0
BBX 4 12 1 0
BITMAP
C0
20
10
10
10
10
20
40
40
00
40
40
ENDCHAR
STARTCHAR uni0040
ENCODING 64
SWIDTH 5760 0
DWIDTH 6 0
BBX 5 12 0 0
BITMAP
70
88
88
98
A8
A8
A8
A8
98
80
80
70
ENDCHAR
STARTCHAR uni0041
ENCODING 65
SWIDTH 5760 0
DWIDTH 6 0
BBX 5 11 0 0
BITMAP
20
20
20
50
50
50
88
88
F8
88
88
ENDCHAR
STARTCHAR uni0042
ENCODING 66
SWIDTH 5760 0
DWIDTH 6 0
BBX 5 11 0 0
BITMAP
F0
88
88
88
90
E0
90
88
88
88
F0
ENDCHAR
STARTCHAR uni0043
ENCODING 67
SWIDTH 5760 0
DWIDTH 6 0
BBX 5 11 0 0
BITMAP
38
40
80
80
80
80
80
80
80
40
38
ENDCHAR
STARTCHAR uni0044
ENCODING 68
SWIDTH 5760 0
DWIDTH 6 0
BBX 5 11 0 0
BITMAP
E0
90
88
88
88
88
88
88
88
90
E0
ENDCHAR
STARTCHAR uni0045
ENCODING 69
SWIDTH 5760 0
DWIDTH 6 0
BBX 5 11 0 0
BITMAP
F8
80
80
80
80
F8
80
80
80
80
F8
ENDCHAR
STARTCHAR uni0046
ENCODING 70
SWIDTH 5760 0
DWIDTH 6 0
BBX 5 11 0 0
BITMAP
F8
80
80
80
80
F8
80
80
80
80
80
ENDCHAR
STARTCHAR uni0047
ENCODING 71
SWIDTH 5760 0
DWIDTH 6 0
BBX 5 11 0 0
BITMAP
30
40
80
80
80
80
98
88
88
48
30
ENDCHAR
STARTCHAR uni0048
ENCODING 72
SWIDTH 5760 0
DWIDTH 6 0
BBX 5 11 0 0
BITMAP
88
88
88
88
88
F8
88
88
88
88
88
ENDCHAR
STARTCHAR uni0049
ENCODING 73
SWIDTH 5760 0
DWIDTH 6 0
BBX 3 11 1 0
BITMAP
E0
40
40
40
40
40
40
40
40
40
E0
ENDCHAR
STARTCHAR uni004A
ENCODING 74
SWIDTH 5760 0
DWIDTH 6 0
BBX 3 14 1 -3
BITMAP
60
20
20
20
20
20
20
20
20
20
20
20
20
C0
ENDCHAR
STARTCHAR uni004B
ENCODING 75
SWIDTH 5760 0
DWIDTH 6 0
BBX 5 11 0 0
BITMAP
88
88
90
A0
C0
C0
A0
90
88
88
88
ENDCHAR
STARTCHAR uni004C
ENCODING 76
SWIDTH 5760 0
DWIDTH 6 0
BBX 5 11 0 0
BITMAP
80
80
80
80
80
80
80
80
80
80
F8
ENDCHAR
STARTCHAR uni004D
ENCODING 77
SWIDTH 5760 0
DWIDTH 6 0
BBX 5 11 0 0
BITMAP
88
88
D8
A8
A8
88
88
88
88
88
88
ENDCHAR
STARTCHAR uni004E
ENCODING 78
SWIDTH 5760 0
DWIDTH 6 0
BBX 5 11 0 0
BITMAP
88
88
C8
C8
A8
A8
98
98
88
88
88
ENDCHAR
STARTCHAR uni004F
ENCODING 79
SWIDTH 5760 0
DWIDTH 6 0
BBX 5 11 0 0
BITMAP
70
88
88
88
88
88
88
88
88
88
70
ENDCHAR
STARTCHAR uni0050
ENCODING 80
SWIDTH 5760 0
DWIDTH 6 0
BBX 5 11 0 0
BITMAP
E0
90
88
88
88
90
E0
80
80
80
80
ENDCHAR
STARTCHAR uni0051
ENCODING 81
SWIDTH 5760 0
DWIDTH 6 0
BBX 5 14 0 -3
BITMAP
70
88
88
88
88
88
88
88
88
88
70
20
10
08
ENDCHAR
STARTCHAR uni0052
ENCODING 82
SWIDTH 5760 0
DWIDTH 6 0
BBX 5 11 0 0
BITMAP
E0
90
88
88
88
90
E0
90
88
88
88
ENDCHAR
STARTCHAR uni0053
ENCODING 83
SWIDTH 5760 0
DWIDTH 6 0
BBX 5 11 0 0
BITMAP
78
80
80
80
40
20
10
08
08
08
F0
ENDCHAR
STARTCHAR uni0054
ENCODING 84
SWIDTH 5760 0
DWIDTH 6 0
BBX 5 11 0 0
BITMAP
F8
20
20
20
20
20
20
20
20
20
20
ENDCHAR
STARTCHAR uni0055
ENCODING 85
SWIDTH 5760 0
DWIDTH 6 0
BBX 5 11 0 0
BITMAP
88
88
88
88
88
88
88
88
88
88
70
ENDCHAR
STARTCHAR uni0056
ENCODING 86
SWIDTH 5760 0
DWIDTH 6 0
BBX 5 11 0 0
BITMAP
88
88
88
88
50
50
50
50
20
20
20
ENDCHAR
STARTCHAR uni0057
ENCODING 87
SWIDTH 5760 0
DWIDTH 6 0
BBX 5 11 0 0
BITMAP
88
88
88
88
A8
A8
A8
A8
50
50
50
ENDCHAR
STARTCHAR uni0058
ENCODING 88
SWIDTH 5760 0
DWIDTH 6 0
BBX 5 11 0 0
BITMAP
88
88
50
50
20
20
20
50
50
88
88
ENDCHAR
STARTCHAR uni0059
ENCODING 89
SWIDTH 5760 0
DWIDTH 6 0
BBX 5 11 0 0
BITMAP
88
88
88
50
50
20
20
20
20
20
20
ENDCHAR
STARTCHAR uni005A
ENCODING 90
SWIDTH 5760 0
DWIDTH 6 0
BBX 5 11 0 0
BITMAP
F8
08
10
10
20
20
20
40
40
80
F8
ENDCHAR
STARTCHAR uni005B
ENCODING 91
SWIDTH 5760 0
DWIDTH 6 0
BBX 3 16 1 -3
BITMAP
E0
80
80
80
80
80
80
80
80
80
80
80
80
80
80
E0
ENDCHAR
STARTCHAR uni005C
ENCODING 92
SWIDTH 5760 0
DWIDTH 6 0
BBX 4 12 1 0
BITMAP
80
80
80
40
40
40
20
20
20
10
10
10
ENDCHAR
STARTCHAR uni005D
ENCODING 93
SWIDTH 5760 0
DWIDTH 6 0
BBX 3 16 1 -3
BITMAP
E0
20
20
20
20
20
20
20
20
20
20
20
20
20
20
E0
ENDCHAR
STARTCHAR uni005E
ENCODING 94
SWIDTH 5760 0
DWIDTH 6 0
BBX 5 5 0 7
BITMAP
20
20
50
50
88
ENDCHAR
STARTCHAR uni005F
ENCODING 95
SWIDTH 5760 0
DWIDTH 6 0
BBX 5 1 0 -1
BITMAP
F8
ENDCHAR
STARTCHAR uni0060
ENCODING 96
SWIDTH 5760 0
DWIDTH 6 0
BBX 2 4 2 8
BITMAP
40
80
C0
C0
ENDCHAR
STARTCHAR uni0061
ENCODING 97
SWIDTH 5760 0
DWIDTH 6 0
BBX 4 8 1 0
BITMAP
60
10
10
70
90
90
90
70
ENDCHAR
STARTCHAR uni0062
ENCODING 98
SWIDTH 5760 0
DWIDTH 6 0
BBX 4 13 1 0
BITMAP
80
80
80
80
80
E0
90
90
90
90
90
90
E0
ENDCHAR
STARTCHAR uni0063
ENCODING 99
SWIDTH 5760 0
DWIDTH 6 0
BBX 4 8 1 0
BITMAP
70
80
80
80
80
80
80
70
ENDCHAR
STARTCHAR uni0064
ENCODING 100
SWIDTH 5760 0
DWIDTH 6 0
BBX 4 13 1 0
BITMAP
10
10
10
10
10
70
90
90
90
90
90
90
70
ENDCHAR
STARTCHAR uni0065
ENCODING 101
SWIDTH 5760 0
DWIDTH 6 0
BBX 4 8 1 0
BITMAP
60
90
90
90
F0
80
80
60
ENDCHAR
STARTCHAR uni0066
ENCODING 102
SWIDTH 5760 0
DWIDTH 6 0
BBX 4 13 1 0
BITMAP
30
40
40
40
40
F0
40
40
40
40
40
40
40
ENDCHAR
STARTCHAR uni0067
ENCODING 103
SWIDTH 5760 0
DWIDTH 6 0
BBX 4 12 1 -4
BITMAP
70
90
90
90
90
90
90
70
10
10
10
60
ENDCHAR
STARTCHAR uni0068
ENCODING 104
SWIDTH 5760 0
DWIDTH 6 0
BBX 4 13 1 0
BITMAP
80
80
80
80
80
E0
90
90
90
90
90
90
90
ENDCHAR
STARTCHAR uni0069
ENCODING 105
SWIDTH 5760 0
DWIDTH 6 0
BBX 1 11 2 0
BITMAP
80
80
00
80
80
80
80
80
80
80
80
ENDCHAR
STARTCHAR uni006A
ENCODING 106
SWIDTH 5760 0
DWIDTH 6 0
BBX 2 15 1 -4
BITMAP
40
40
00
40
40
40
40
40
40
40
40
40
40
40
80
ENDCHAR
STARTCHAR uni006B
ENCODING 107
SWIDTH 5760 0
DWIDTH 6 0
BBX 4 13 1 0
BITMAP
80
80
80
80
80
90
90
A0
C0
C0
A0
90
90
ENDCHAR
STARTCHAR uni006C
ENCODING 108
SWIDTH 5760 0
DWIDTH 6 0
BBX 3 13 2 0
BITMAP
80
80
80
80
80
80
80
80
80
80
80
80
60
ENDCHAR
STARTCHAR uni006D
ENCODING 109
SWIDTH 5760 0
DWIDTH 6 0
BBX 5 8 0 0
BITMAP
D0
A8
A8
A8
A8
A8
A8
A8
ENDCHAR
STARTCHAR uni006E
ENCODING 110
SWIDTH 5760 0
DWIDTH 6 0
BBX 4 8 1 0
BITMAP
E0
90
90
90
90
90
90
90
ENDCHAR
STARTCHAR uni006F
ENCODING 111
SWIDTH 5760 0
DWIDTH 6 0
BBX 4 8 1 0
BITMAP
60
90
90
90
90
90
90
60
ENDCHAR
STARTCHAR uni0070
ENCODING 112
SWIDTH 5760 0
DWIDTH 6 0
BBX 4 12 1 -4
BITMAP
E0
90
90
90
90
90
90
E0
80
80
80
80
ENDCHAR
STARTCHAR uni0071
ENCODING 113
SWIDTH 5760 0
DWIDTH 6 0
BBX 4 12 1 -4
BITMAP
70
90
90
90
90
90
90
70
10
10
10
10
ENDCHAR
STARTCHAR uni0072
ENCODING 114
SWIDTH 5760 0
DWIDTH 6 0
BBX 4 8 1 0
BITMAP
B0
C0
80
80
80
80
80
80
ENDCHAR
STARTCHAR uni0073
ENCODING 115
SWIDTH 5760 0
DWIDTH 6 0
BBX 4 8 1 0
BITMAP
70
80
80
40
20
10
10
E0
ENDCHAR
STARTCHAR uni0074
ENCODING 116
SWIDTH 5760 0
DWIDTH 6 0
BBX 4 11 1 0
BITMAP
40
40
40
F0
40
40
40
40
40
40
30
ENDCHAR
STARTCHAR uni0075
ENCODING 117
SWIDTH 5760 0
DWIDTH 6 0
BBX 4 8 1 0
BITMAP
90
90
90
90
90
90
90
70
ENDCHAR
STARTCHAR uni0076
ENCODING 118
SWIDTH 5760 0
DWIDTH 6 0
BBX 5 8 0 0
BITMAP
88
88
88
50
50
50
20
20
ENDCHAR
STARTCHAR uni0077
ENCODING 119
SWIDTH 5760 0
DWIDTH 6 0
BBX 5 8 0 0
BITMAP
A8
A8
A8
A8
A8
50
50
50
ENDCHAR
STARTCHAR uni0078
ENCODING 120
SWIDTH 5760 0
DWIDTH 6 0
BBX 5 8 0 0
BITMAP
88
88
50
20
20
50
88
88
ENDCHAR
STARTCHAR uni0076
ENCODING 121
SWIDTH 5760 0
DWIDTH 6 0
BBX 4 12 1 -4
BITMAP
90
90
90
90
90
90
90
70
10
10
10
60
ENDCHAR
STARTCHAR uni007A
ENCODING 122
SWIDTH 5760 0
DWIDTH 6 0
BBX 4 8 1 0
BITMAP
F0
10
20
20
40
40
80
F0
ENDCHAR
STARTCHAR uni007B
ENCODING 123
SWIDTH 5760 0
DWIDTH 6 0
BBX 3 16 1 -3
BITMAP
20
40
40
40
40
40
40
80
40
40
40
40
40
40
40
20
ENDCHAR
STARTCHAR uni007C
ENCODING 124
SWIDTH 5760 0
DWIDTH 6 0
BBX 1 16 2 -3
BITMAP
80
80
80
80
80
80
80
80
80
80
80
80
80
80
80
80
ENDCHAR
STARTCHAR uni007B
ENCODING 125
SWIDTH 5760 0
DWIDTH 6 0
BBX 3 16 1 -3
BITMAP
80
40
40
40
40
40
40
20
40
40
40
40
40
40
40
80
ENDCHAR
STARTCHAR uni007E
ENCODING 126
SWIDTH 5760 0
DWIDTH 6 0
BBX 5 3 0 2
BITMAP
48
A8
90
ENDCHAR
ENDFONT
